<svg id="OBJECTS" xmlns="http://www.w3.org/2000/svg" xmlns:xlink="http://www.w3.org/1999/xlink" viewBox="0 0 500 500"><defs><style>.cls-1,.cls-16{fill:none;}.cls-2{fill:#f4f3f2;}.cls-3{clip-path:url(#clip-path);}.cls-4{fill:#fcba04;}.cls-5{fill:#ffd983;}.cls-6{fill:#ffcf57;}.cls-7{fill:#efb237;}.cls-8{fill:#fff;}.cls-9{fill:#f9d27a;}.cls-10{fill:#f7cb74;}.cls-11{fill:#e2a100;}.cls-12{fill:#ffbe00;}.cls-13{fill:#232959;}.cls-14{fill:url(#Degradado_sin_nombre_53);}.cls-15{fill:#2e3f77;}.cls-16{stroke:#2e3f77;stroke-linecap:round;stroke-linejoin:round;stroke-width:0.5px;}.cls-17{fill:#171d3f;}.cls-18{fill:#d69400;}</style><clipPath id="clip-path"><path class="cls-1" d="M375.07,268.9a51.7,51.7,0,0,1-9.16-27.67c-.55-18.53,9.25-35.5,5.15-54.24-3.43-15.67-14.32-30-29.22-36.28a38.83,38.83,0,0,0-23.39-2.56c-8.77,1.87-16.51,6.59-24.32,10.76a116.36,116.36,0,0,1-58.47,13.86c-17.62-.54-36-7.34-51.09,5.36-12.35,10.43-14.12,25-10.62,39.94,2.17,9.29,5.8,19.39,1.86,28.73-3.43,8.12-10.83,13.79-16.9,19.87A97.71,97.71,0,0,0,134.2,309c-2.53,8.93-4.33,18.06-2.25,27.18,3.94,17.25,16.27,32.31,34.79,33.81a54.71,54.71,0,0,0,19-2.25,2.39,2.39,0,0,0,1.37-.91c7.58-.82,13.85-3.89,20-8.89,14.75-12,31.77-19.38,51.15-18.05,10.36.71,20.35,3.95,30.51,5.88a118.57,118.57,0,0,0,27.5,2.12c31-1.45,66.66-21.93,67.76-56.52C384.27,282.34,379.91,276,375.07,268.9Z"/></clipPath><linearGradient id="Degradado_sin_nombre_53" x1="245.56" y1="281.01" x2="205.66" y2="281.01" gradientUnits="userSpaceOnUse"><stop offset="0.14" stop-color="#f9d27a"/><stop offset="0.69" stop-color="#efc46f"/></linearGradient></defs><title>hero photo</title><path class="cls-2" d="M375.07,268.9a51.7,51.7,0,0,1-9.16-27.67c-.55-18.53,9.25-35.5,5.15-54.24-3.43-15.67-14.32-30-29.22-36.28a38.83,38.83,0,0,0-23.39-2.56c-8.77,1.87-16.51,6.59-24.32,10.76a116.36,116.36,0,0,1-58.47,13.86c-17.62-.54-36-7.34-51.09,5.36-12.35,10.43-14.12,25-10.62,39.94,2.17,9.29,5.8,19.39,1.86,28.73-3.43,8.12-10.83,13.79-16.9,19.87A97.71,97.71,0,0,0,134.2,309c-2.53,8.93-4.33,18.06-2.25,27.18,3.94,17.25,16.27,32.31,34.79,33.81a54.71,54.71,0,0,0,19-2.25,2.39,2.39,0,0,0,1.37-.91c7.58-.82,13.85-3.89,20-8.89,14.75-12,31.77-19.38,51.15-18.05,10.36.71,20.35,3.95,30.51,5.88a118.57,118.57,0,0,0,27.5,2.12c31-1.45,66.66-21.93,67.76-56.52C384.27,282.34,379.91,276,375.07,268.9Z"/><g class="cls-3"><path class="cls-4" d="M167.49,284.44c-7.48,1.94-8.14,10.91-6.64,17.07,1.16,4.78,3.55,9.85,2.22,14.84-1.08,4.07-4.79,7.16-4.33,11.66.32,3,2.4,5.32,4.48,7.36,3.35,3.27,5.83,5.78,4.51,10.8-1.17,4.48-2.47,8.44-1.72,13.15a20.86,20.86,0,0,0,5,10.74c6.81,7.53,17.27,6.28,26.14,3.93,1.73-.46,1.24-2.67-.14-3.16,6.29-2.85,13.27-7.93,10.09-15.71-2.79-6.8-11.31-9.35-10.38-17.75.66-6,4.32-12.72,1-18.57-2.12-3.73-6.22-5-9.6-7.27-4.55-3-5.69-8.25-6.8-13.26C179.88,291.85,176,282.25,167.49,284.44Z"/><path class="cls-5" d="M190,368.28c-5.87-25.57-10.95-51.51-19.16-76.47-.25-.76-1.45-.43-1.2.34,8.2,25,13.29,50.89,19.16,76.46.18.78,1.38.45,1.2-.33Z"/><path class="cls-5" d="M187.82,359.55a51.8,51.8,0,0,1-11-8.84c-.55-.58-1.43.3-.88.89a53,53,0,0,0,11.3,9,.63.63,0,0,0,.63-1.08Z"/><path class="cls-5" d="M187.73,360.07c3.08-3.76,6.19-7.49,8.94-11.51.45-.67-.63-1.3-1.08-.64-2.69,3.94-5.74,7.59-8.75,11.27-.5.62.38,1.51.89.88Z"/><path class="cls-5" d="M183.72,343.45a47.54,47.54,0,0,1-10.76-7c-.61-.52-1.5.36-.88.88a48.77,48.77,0,0,0,11,7.16c.72.35,1.35-.73.63-1.08Z"/><path class="cls-5" d="M184.18,344.26a109.82,109.82,0,0,0,9.51-10.6c.49-.62-.39-1.52-.89-.88a107.15,107.15,0,0,1-9.5,10.59c-.58.56.3,1.45.88.89Z"/><path class="cls-5" d="M180.3,327.68a31.41,31.41,0,0,1-11.8-5.63c-.64-.48-1.26.6-.63,1.08a32.21,32.21,0,0,0,12.1,5.76c.78.19,1.12-1,.33-1.21Z"/><path class="cls-5" d="M180.42,328.68a30.84,30.84,0,0,0,6.85-9.68c.32-.73-.75-1.36-1.08-.63a30.18,30.18,0,0,1-6.65,9.43c-.59.55.3,1.44.88.88Z"/><path class="cls-5" d="M176.4,313.08a43.48,43.48,0,0,1-8.08-4.23c-.67-.44-1.29.64-.63,1.08a45.06,45.06,0,0,0,8.38,4.36c.75.29,1.07-.92.33-1.21Z"/><path class="cls-5" d="M176.61,314a37.57,37.57,0,0,0,5.17-8.28c.33-.73-.74-1.36-1.08-.63a36.34,36.34,0,0,1-5,8c-.51.61.37,1.5.88.88Z"/><path class="cls-6" d="M345.42,259.91c-7-3.3-13.24,3.17-16,8.86-2.17,4.42-3.59,9.84-7.8,12.82-3.44,2.43-8.27,2.43-10.8,6.18-1.7,2.54-1.56,5.61-1.27,8.52.47,4.65.77,8.17-3.45,11.18-3.78,2.69-7.31,4.9-9.75,9a20.88,20.88,0,0,0-3.06,11.43c.4,10.15,9.24,15.89,17.55,19.76,1.63.76,2.67-1.25,1.92-2.51,6.66,1.84,15.28,2.41,17.81-5.6,2.22-7-2.7-14.42,3.4-20.28,4.38-4.21,11.47-7,12.67-13.62.76-4.21-1.56-7.85-2.72-11.73-1.56-5.23.92-10,3.28-14.54C350.19,273.55,353.32,263.65,345.42,259.91Z"/><path class="cls-7" d="M309,338.76c11.9-23.44,24.62-46.67,34.33-71.14.3-.75-.91-1.07-1.2-.33-9.67,24.36-22.36,47.49-34.21,70.84-.36.71.72,1.35,1.08.63Z"/><path class="cls-7" d="M312.93,330.66a52.49,52.49,0,0,1-2.83-13.85c-.05-.8-1.3-.81-1.25,0A53.66,53.66,0,0,0,311.72,331c.27.76,1.48.43,1.21-.33Z"/><path class="cls-7" d="M312.62,330.94c4.72-.91,9.45-1.78,14.09-3.09a.62.62,0,0,0-.34-1.2c-4.63,1.31-9.36,2.17-14.08,3.08-.79.15-.46,1.36.33,1.21Z"/><path class="cls-7" d="M320,315.52a48.22,48.22,0,0,1-3.77-12.24c-.13-.79-1.34-.46-1.2.33A49.19,49.19,0,0,0,319,316.15c.34.73,1.41.1,1.08-.63Z"/><path class="cls-7" d="M319.86,316.54a110.59,110.59,0,0,0,14.26-2.07c.78-.16.45-1.37-.33-1.2a109,109,0,0,1-13.93,2c-.79.06-.8,1.32,0,1.25Z"/><path class="cls-7" d="M327.59,301.37a31.35,31.35,0,0,1-5.47-11.88c-.18-.78-1.38-.45-1.21.34a32.49,32.49,0,0,0,5.6,12.17c.47.64,1.56,0,1.08-.63Z"/><path class="cls-7" d="M327,302.17a31.49,31.49,0,0,0,11.61-3.1c.72-.34.09-1.42-.63-1.07a30,30,0,0,1-11,2.92c-.8.06-.81,1.31,0,1.25Z"/><path class="cls-7" d="M334,287.66a42.8,42.8,0,0,1-3.51-8.42.63.63,0,0,0-1.21.33,45,45,0,0,0,3.64,8.72c.38.71,1.46.08,1.08-.63Z"/><path class="cls-7" d="M333.61,288.42a37.81,37.81,0,0,0,9.27-3.07c.73-.35.09-1.43-.63-1.08a37.3,37.3,0,0,1-9,3c-.79.15-.45,1.36.33,1.2Z"/><path class="cls-5" d="M259.4,248.69c7.73,0,10.64,8.49,10.75,14.83.09,4.92-.93,10.43,1.62,14.92,2.08,3.66,6.45,5.71,7.14,10.18.47,3-1,5.75-2.46,8.25-2.41,4-4.17,7.07-1.63,11.59,2.28,4,4.53,7.54,5,12.29a20.91,20.91,0,0,1-2.08,11.65c-4.68,9-15.12,10.45-24.29,10.43-1.79,0-1.88-2.26-.67-3.08-6.81-1.17-14.85-4.31-13.74-12.65,1-7.28,8.57-11.9,5.53-19.8-2.17-5.66-7.4-11.2-5.68-17.71,1.1-4.14,4.75-6.44,7.45-9.46,3.63-4.08,3.41-9.43,3.21-14.55C249.29,259,250.66,248.72,259.4,248.69Z"/><path class="cls-7" d="M260.16,335.5c-.81-26.22-2.47-52.6-.87-78.82,0-.8-1.2-.8-1.25,0-1.6,26.22.06,52.6.87,78.82a.63.63,0,0,0,1.25,0Z"/><path class="cls-7" d="M259.68,327.39a52.78,52.78,0,0,0,8.63-11.61c.39-.7-.69-1.33-1.08-.63a51.54,51.54,0,0,1-8.44,11.35c-.56.58.32,1.46.89.89Z"/><path class="cls-7" d="M259.64,325.91c-3.84-2.8-7.72-5.56-11.31-8.68-.61-.53-1.5.35-.89.88,3.68,3.2,7.64,6,11.57,8.88.65.47,1.28-.61.63-1.08Z"/><path class="cls-7" d="M259.56,310.78a49.13,49.13,0,0,0,8.83-9.72c.46-.67-.62-1.29-1.08-.63a47.64,47.64,0,0,1-8.64,9.46c-.61.52.28,1.4.89.89Z"/><path class="cls-7" d="M259.06,309.71a110.29,110.29,0,0,1-11.88-7.84c-.65-.48-1.27.6-.64,1.08a111.42,111.42,0,0,0,11.89,7.84.63.63,0,0,0,.63-1.08Z"/><path class="cls-7" d="M258.6,294.85a31.8,31.8,0,0,0,10.24-8.63c.49-.63-.39-1.52-.88-.89a31.25,31.25,0,0,1-10,8.44c-.71.38-.08,1.46.63,1.08Z"/><path class="cls-7" d="M258.74,293.69a30.15,30.15,0,0,1-8.82-7.43c-.5-.63-1.38.26-.88.88a31,31,0,0,0,9.07,7.63c.71.39,1.34-.69.63-1.08Z"/><path class="cls-7" d="M258.67,279.74a44.33,44.33,0,0,0,7-6.34c.53-.6-.35-1.48-.89-.88a42.68,42.68,0,0,1-6.74,6.14c-.64.47,0,1.55.63,1.08Z"/><path class="cls-7" d="M258.7,278.5a36.07,36.07,0,0,1-6.85-6.5c-.51-.63-1.39.26-.89.88a37.31,37.31,0,0,0,7.11,6.7c.65.48,1.27-.61.63-1.08Z"/><path class="cls-8" d="M258.67,256.68l-.66-.28a1.35,1.35,0,0,1-.69-1.78l.28-.65a1.35,1.35,0,0,0-.69-1.78h0a1.35,1.35,0,0,0-1.78.7l-.29.65a1.34,1.34,0,0,1-1.77.7l-.66-.29a1.35,1.35,0,0,0-1.77.7h0a1.35,1.35,0,0,0,.7,1.78l.65.28a1.36,1.36,0,0,1,.7,1.78l-.29.65a1.36,1.36,0,0,0,.7,1.78h0a1.35,1.35,0,0,0,1.77-.7l.29-.65a1.35,1.35,0,0,1,1.78-.7l.65.28a1.34,1.34,0,0,0,1.77-.69h0A1.35,1.35,0,0,0,258.67,256.68Z"/><path class="cls-8" d="M166.63,293.64l-.65-.29a1.35,1.35,0,0,1-.7-1.78l.29-.65a1.35,1.35,0,0,0-.7-1.77h0a1.35,1.35,0,0,0-1.78.69l-.28.66a1.35,1.35,0,0,1-1.78.69l-.65-.28a1.35,1.35,0,0,0-1.78.69h0a1.35,1.35,0,0,0,.7,1.78l.65.29a1.33,1.33,0,0,1,.7,1.77l-.29.65a1.36,1.36,0,0,0,.7,1.78h0a1.35,1.35,0,0,0,1.78-.7l.28-.65a1.37,1.37,0,0,1,1.78-.7l.65.29a1.35,1.35,0,0,0,1.78-.7h0A1.34,1.34,0,0,0,166.63,293.64Z"/><path class="cls-8" d="M166.9,303l-.24-.11a.5.5,0,0,1-.26-.66l.11-.24a.51.51,0,0,0-.26-.66h0a.51.51,0,0,0-.66.26l-.1.24a.5.5,0,0,1-.66.26l-.24-.1a.5.5,0,0,0-.66.25h0a.5.5,0,0,0,.26.66l.24.11a.5.5,0,0,1,.26.65l-.11.25a.5.5,0,0,0,.26.65h0a.49.49,0,0,0,.66-.26l.11-.24a.48.48,0,0,1,.65-.25l.24.1a.49.49,0,0,0,.66-.26h0A.49.49,0,0,0,166.9,303Z"/><path class="cls-8" d="M171.75,285.69l-.24-.11a.49.49,0,0,1-.26-.66l.1-.24a.5.5,0,0,0-.25-.66h0a.5.5,0,0,0-.66.26l-.11.24a.49.49,0,0,1-.65.26l-.24-.1a.5.5,0,0,0-.66.25h0a.49.49,0,0,0,.26.66l.24.11a.5.5,0,0,1,.26.65l-.11.25a.5.5,0,0,0,.26.65h0a.5.5,0,0,0,.66-.26l.1-.24a.49.49,0,0,1,.66-.25l.24.1a.5.5,0,0,0,.66-.26h0A.5.5,0,0,0,171.75,285.69Z"/></g><g class="cls-3"><polygon class="cls-9" points="199.98 339.95 199.45 369.06 210.03 369.85 217.53 341.1 199.98 339.95"/><path class="cls-10" d="M211.39,219a3.35,3.35,0,0,0-.48-.59,3.3,3.3,0,0,0-4-2.21,3.34,3.34,0,0,0-2.29,4l.66,2.6A3.22,3.22,0,0,0,208,225.2a2.91,2.91,0,0,0,.93.14,3.34,3.34,0,0,0,3.27-3.28A5.29,5.29,0,0,0,211.39,219Z"/><path class="cls-10" d="M231.53,219a3.87,3.87,0,0,1,.48-.59,3.3,3.3,0,0,1,4-2.21,3.34,3.34,0,0,1,2.29,4l-.66,2.6a3.2,3.2,0,0,1-2.72,2.33,2.89,2.89,0,0,1-.92.14,3.35,3.35,0,0,1-3.28-3.28A5.29,5.29,0,0,1,231.53,219Z"/><path class="cls-11" d="M200.56,306.19l-3.92,36.86,22.81,2.53,5.07-18.43,5.53,18.66,22.34-4.14-6.91-29S203.55,312.41,200.56,306.19Z"/><path class="cls-9" d="M232.45,205.19a48.21,48.21,0,0,0-11-1.14h0a48.31,48.31,0,0,0-11,1.14c-1.85,3.25-3.07,15.34-1.52,24.08,1.61,9.12,3.46,11.06,12.5,11.22h0c9-.16,10.89-2.1,12.5-11.22C235.52,220.53,234.3,208.44,232.45,205.19Z"/><path class="cls-12" d="M208.37,243.89s11.19-1.9,14.48-1.73,17,2.6,22.87,6.41,8,20.84,8,27.08l-11.29-.33,5.06,40.37s-34.88,4.16-48.74-3.46l2-37.75-11.45-.23S192.61,245.62,208.37,243.89Z"/><path class="cls-9" d="M225.77,242.5c0-1.8-.22-9.22-1.77-12.33-1.78-3.55-8.15,3.41-8.15,3.41s.45,5,.45,9.18l0,0-4.69.9.37,0s6,9.37,19.28-.07Z"/><path class="cls-13" d="M237.08,204a5.55,5.55,0,0,0-3.33-5,21,21,0,0,1-2.58-1.87c-1.1-1.14-1.51-2.73-2.55-3.91a4.85,4.85,0,0,0-3.25-1.78c-2.77-.25-5.54,3.25-8.52,2a7.16,7.16,0,0,0-7.43,1.54,8,8,0,0,0-2.41,8.33,1.58,1.58,0,0,1-.09,1.09c-1.48,3.14-.94,7.39,0,10.93a2.29,2.29,0,0,0,2.18,1.71h0a.83.83,0,0,0,.79-1c-.47-2.62,1-4.75,2.38-6.87a13,13,0,0,0,1.32.55c5,2.62,12,3.36,16.73,1.17a1.46,1.46,0,0,1,1.9.66,6.83,6.83,0,0,1,.9,4.49.83.83,0,0,0,.79,1h0a2.29,2.29,0,0,0,2.17-1.71,21.51,21.51,0,0,0,.71-8.46,1.29,1.29,0,0,1,0-.48A12.48,12.48,0,0,0,237.08,204Z"/><path class="cls-14" d="M252.39,268.79s7.46,29.78-13.31,23.58c-12.45-3.71-19.6-6.33-33.85-4.58-5.87.72,11.3-8.1,7-7.86,0,0,10.25-2.93,26.37.54,7.09,1.53,4.74-4.64,2.12-8.51"/><path class="cls-9" d="M191.15,268.68s-8.86,33,11.68,26.1c6.82-2.31,20.55-15.92,28.41-15.48,0,0-10.71-2.3-26.83,1.17-7.09,1.53-4.75-4.64-2.13-8.51"/><path class="cls-12" d="M253,267.05H190.63a64.62,64.62,0,0,0-1.39,7.2l11.41,1.88-.13,1.61h42.17l-.28-.95,11.27-1.14A65.76,65.76,0,0,0,253,267.05Z"/><path class="cls-15" d="M213.84,222.5a.82.82,0,0,0,0-1.64.82.82,0,0,0,0,1.64Z"/><path class="cls-15" d="M229.08,222.5a.82.82,0,0,0,0-1.64.82.82,0,0,0,0,1.64Z"/><path class="cls-16" d="M211,219.27a2.93,2.93,0,0,1,1.38-1.1,3.13,3.13,0,0,1,1.91.09"/><path class="cls-16" d="M231.92,219.27a2.87,2.87,0,0,0-1.37-1.1,3.13,3.13,0,0,0-1.91.09"/><path class="cls-16" d="M219.15,233.48a4.67,4.67,0,0,0,2.17,1.5,2.45,2.45,0,0,0,2.45-.63"/><path class="cls-16" d="M221.1,222.29a13.2,13.2,0,0,1-.08,3.09c-.18,1.13-1.32,2.45-.66,3.15a1.44,1.44,0,0,0,1.9-.08"/><path class="cls-8" d="M199.32,302a116.87,116.87,0,0,0,45.64.95c1-.18.6-1.76-.44-1.58a114.56,114.56,0,0,1-44.77-1c-1-.22-1.46,1.36-.43,1.58Z"/><path class="cls-8" d="M198.88,309.4A118.33,118.33,0,0,0,246,310.52c1-.18.6-1.76-.43-1.58a116,116,0,0,1-46.29-1.12c-1-.24-1.47,1.34-.44,1.58Z"/><path class="cls-17" d="M286.29,207.6c-2.31,1.57-6.56,10.63-6.94,13.41s-.2,5.6-.62,8.37c-.53,3.43-2,6.65-2.57,10.06-.45,2.61-.41,5.28-.72,7.91-1,8.92-6.07,17-7.43,25.85a18,18,0,0,0,.32,8c2.65,8.65,13.68,12.13,17.49,20.34.82,1.77,1.28,3.72,2.35,5.34,1.56,2.34,4.22,3.71,6.9,4.54,2.95.91,6.35,1.21,8.95-.46a13.57,13.57,0,0,0,3-2.94c5.55-6.81,11.1-13.78,14.53-21.87a18,18,0,0,0,1.75-7.3c-.14-6.37-5.71-12.06-4.57-18.33.24-1.3.76-2.53,1.11-3.8,1.21-4.46.24-9.19-.73-13.72q-2.61-12.24-5.24-24.49a19.42,19.42,0,0,0-2.15-6.34c-2.24-3.56-6.64-5.3-10.84-5.43s-8.33,1.13-12.35,2.37"/><path class="cls-17" d="M285.72,207c-3.61,3.17-6.34,9.3-7.19,14-.62,3.39-.24,6.77-1,10.19-.53,2.37-1.43,4.63-1.93,7-1.09,5.14-.87,10.38-2.36,15.48-2.55,8.78-8.87,19.06-5.43,28.43,2.53,6.88,9.64,10.21,14.28,15.42,2.8,3.15,3.42,7.38,6,10.53,2.28,2.75,6,4.24,9.48,4.7,8,1,12-6.5,16.22-12.15,4.71-6.34,11.41-15.35,10.06-23.8-.8-5-4.52-9.33-4.51-14.46,0-5.3,2.2-9.49,1.39-15-.95-6.46-2.67-12.88-4-19.27-1.17-5.42-1.46-12.47-4.88-17-5.62-7.5-16-5-23.57-2.73-1,.31-.57,1.89.44,1.58,5.86-1.78,12.91-4,18.67-.62,6.09,3.54,6.41,13,7.76,19.25,1.21,5.64,2.59,11.29,3.62,17a26.35,26.35,0,0,1,0,12,19.78,19.78,0,0,0-1,4.94c0,4,2.26,7.42,3.49,11.09,2.24,6.69,0,12.19-3.34,18.13a105.88,105.88,0,0,1-9.39,13.26c-3.1,3.88-4.82,6.94-11.39,6.22-3.94-.43-6.51-2.62-8.52-5.73-1.79-2.76-2.63-5.8-4.79-8.36-2.46-2.91-5.61-5.1-8.43-7.63-10.21-9.15-5.86-19.72-1.95-30.95a55,55,0,0,0,3-13c.52-5.47,2.22-10.4,3.08-15.77,1.19-7.48,1-15.87,7.35-21.42.8-.7-.37-1.85-1.15-1.16Z"/><path class="cls-9" d="M259.82,209.68a1,1,0,0,0-1.42.19l-1,1.25-.83-7.81s0-.69-.55-.76-.69.72-.69.72l-.48,6.08-.88-6.51s-.19-.77-.9-.67-.56,1-.56,1l.52,6.71-1.67-5.62s-.26-.7-.85-.52-.41,1-.41,1l1,6-1.46-4.59a.69.69,0,0,0-.92-.29c-.42.14-.33.76-.33.76l1,5.89h0a25.22,25.22,0,0,0,1.07,5.51l1,3.28,6.56-2.35a15.75,15.75,0,0,1,.4-5.14c.06-.2,1.05-1.75,1.64-2.74A1,1,0,0,0,259.82,209.68Z"/><path class="cls-12" d="M279.1,302.86c-8.22,5.85-11.36,39.95-11.36,39.95s19.3,5.36,26.27,6.4c25.94,3.88,30.5-5.52,30.5-5.52s-4.05-33.3-13.85-39.52C305.65,301,283.93,299.41,279.1,302.86Z"/><path class="cls-11" d="M317,251.65c-.62-1-9.37-5.65-10.32-6.14,0,0-3.5-.74-3.5-.74s0,4.59-6.39,5.08-7.47-4.64-7.47-4.64l-3.45.37s-11,.72-11.62,1.81c-.3.51-1,12.44,0,25.34,1.1,15.17,3.84,31.62,3.84,31.62s12.67,2.49,21.07,2c2.89-.17,15.46-1,15.46-1S317.64,252.74,317,251.65Z"/><path class="cls-11" d="M292.79,247c-4-1.88-29.44-8.6-31.2-9.89s-3.27-21.37-3.27-21.37l-8.43,1.35s-3.38,27.09,2.69,31.55c9,6.59,35.9,18.63,48.28,18.37,5.28-.11,13.37-8.05,13.37-8.05S296.83,248.87,292.79,247Z"/><path class="cls-10" d="M286.92,220.94a7.25,7.25,0,0,0-4.48-2.8,3.34,3.34,0,0,0-2.29,4l.66,2.6a3.25,3.25,0,0,0,2.72,2.34,2.63,2.63,0,0,0,.92.13,3.34,3.34,0,0,0,3.28-3.27A5.32,5.32,0,0,0,286.92,220.94Z"/><path class="cls-10" d="M307.06,220.94a7.25,7.25,0,0,1,4.48-2.8,3.34,3.34,0,0,1,2.29,4l-.66,2.6a3.25,3.25,0,0,1-2.72,2.34,2.63,2.63,0,0,1-.92.13,3.34,3.34,0,0,1-3.28-3.27A5.32,5.32,0,0,1,307.06,220.94Z"/><path class="cls-9" d="M308,207.09A48.21,48.21,0,0,0,297,206h0a48.21,48.21,0,0,0-11,1.14c-1.85,3.25-3.94,15.55-1.52,24.08,1.47,5.19,3.46,11.07,12.5,11.22h0c9-.15,11.71-6.52,12.5-11.22C311,222.43,309.83,210.34,308,207.09Z"/><path class="cls-9" d="M304.64,245.1l-3.34-.69c0-1.81-.22-9.22-1.77-12.33-1.78-3.56-8.15,3.4-8.15,3.4s.45,5,.45,9.18l0,0a9.41,9.41,0,0,1-2.34.5c-1.29,0-4,13,5.4,13.5C305.72,259.26,304.57,245.39,304.64,245.1Z"/><path class="cls-15" d="M289.37,224.4a.82.82,0,0,0,0-1.63.82.82,0,0,0,0,1.63Z"/><path class="cls-15" d="M304.61,224.4a.82.82,0,0,0,0-1.63.82.82,0,0,0,0,1.63Z"/><path class="cls-16" d="M286.54,221.17a2.87,2.87,0,0,1,1.38-1.09,3.09,3.09,0,0,1,1.91.08"/><path class="cls-16" d="M307.45,221.17a2.88,2.88,0,0,0-1.37-1.09,3.08,3.08,0,0,0-1.91.08"/><path class="cls-17" d="M282.74,217.13s-.09,7.08.72,6.92.5-5.22,1-5.68.7-2.21.7-2.21Z"/><path class="cls-17" d="M311,217.13s.08,7.08-.72,6.92-.51-5.22-1-5.68-.7-2.21-.7-2.21Z"/><path class="cls-13" d="M313.74,211.85c-.41-3.7-2.81-6.68-5.74-8.84-4.15-3.06-14.63-4.92-22.82,1.44-2.34,1.81-3.31,3.57-4.59,6.27-.74,1.58-1.87,4.33-.66,6,2.1,2.85,5.22,1.26,7.74-1-.47,2.44.08,4.71,3.24,5.05a7.32,7.32,0,0,0,7.18-4.3,5,5,0,0,0,.55,1.49,3.86,3.86,0,0,0,3.86,2,3.33,3.33,0,0,0,2.9-3.15l.25.38c1.28,1.72,4,4.4,6.29,3S314,214,313.74,211.85Z"/><path class="cls-8" d="M296.64,234.49a6.46,6.46,0,0,1-2.25-.5c-1.41-.52-2.89-.56-2.79.78s1.45,3.38,5,3.46,5.36-2.33,5.36-3.42a1.45,1.45,0,0,0-2.15-1.1A4.7,4.7,0,0,1,296.64,234.49Z"/><path class="cls-16" d="M296,227.62c-.19,1.13-1.33,2.45-.67,3.15a1.45,1.45,0,0,0,1.91-.08"/><path class="cls-9" d="M294.92,307.71a1,1,0,0,0,.68,1.26l1.52.49-7,3.53s-.65.26-.52.79.91.39.91.39l5.87-1.7-5.78,3.13a.84.84,0,0,0-.31,1.08c.3.53,1.12.17,1.12.17l6.1-2.86-4.67,3.54s-.56.49-.18,1,1,0,1,0l5.29-3-3.77,3a.7.7,0,0,0,.05,1c.28.33.83,0,.83,0l5.13-3h0a25.57,25.57,0,0,0,4.78-3l2.71-2.12-4.52-5.31a15.86,15.86,0,0,1-4.95,1.45c-.21,0-2-.36-3.14-.57A1,1,0,0,0,294.92,307.71Z"/><path class="cls-11" d="M306.66,245.51s9.94,1.94,12.88,5.81c6.89,9.08,13,35.24,12.31,44.9-.47,6.54-24.87,17-24.87,17l-5.9-6.23s16.07-10.27,16.21-12.17-5.67-26.5-6.27-30.35S306.66,245.51,306.66,245.51Z"/><path class="cls-12" d="M287.72,245.22c-2.69,5.48-.29,14.52,6.88,14.38,3.27-.06,6.72-1.25,8.68-4s1.66-7,1.9-10.33c.07-1.05-1.57-1.05-1.64,0-.36,5.24-.1,10.68-6.24,12.33-3.31.88-6.32,0-8-3.12a9,9,0,0,1-.18-8.44c.46-1-.95-1.78-1.41-.83Z"/><polygon class="cls-18" points="196.27 339.86 220.88 343.48 219.74 347.8 195.48 345.51 196.27 339.86"/></g><path class="cls-4" d="M290.51,162.19H252.16a7.15,7.15,0,0,0-7.16,7.16v18.91a7.15,7.15,0,0,0,7.16,7.15h14.48l6.19,3.46,1.31-3.46h16.37a7.15,7.15,0,0,0,7.16-7.15V169.35A7.15,7.15,0,0,0,290.51,162.19Z"/><path class="cls-8" d="M264.67,180a2.6,2.6,0,1,1-2.6-2.6A2.6,2.6,0,0,1,264.67,180Z"/><path class="cls-8" d="M273.93,180a2.6,2.6,0,1,1-2.6-2.6A2.59,2.59,0,0,1,273.93,180Z"/><path class="cls-8" d="M283.2,180a2.6,2.6,0,1,1-2.6-2.6A2.59,2.59,0,0,1,283.2,180Z"/></svg>