<svg id="Layer_1" data-name="Layer 1" xmlns="http://www.w3.org/2000/svg" xmlns:xlink="http://www.w3.org/1999/xlink" viewBox="0 0 1087 1087"><defs><style>.cls-1{fill:url(#linear-gradient);}.cls-2,.cls-3,.cls-4,.cls-6,.cls-7,.cls-8,.cls-9{stroke:#000;stroke-miterlimit:10;}.cls-2,.cls-3,.cls-6,.cls-7,.cls-8{stroke-width:5px;}.cls-2{fill:url(#linear-gradient-2);}.cls-3{fill:url(#linear-gradient-3);}.cls-4{fill:url(#linear-gradient-4);}.cls-5{fill:url(#linear-gradient-5);}.cls-6{fill:url(#linear-gradient-6);}.cls-7{fill:#ffbf00;}.cls-8{fill:url(#linear-gradient-7);}</style><linearGradient id="linear-gradient" x1="539.741" y1="487.503" x2="708.165" y2="487.503" gradientUnits="userSpaceOnUse"><stop offset="0" stop-color="#fff"/><stop offset="1" stop-color="#bf9d00"/></linearGradient><linearGradient id="linear-gradient-2" x1="205.044" y1="317.423" x2="540.303" y2="317.423" gradientUnits="userSpaceOnUse"><stop offset="0" stop-color="#fff"/><stop offset="1" stop-color="#ffbf00"/></linearGradient><linearGradient id="linear-gradient-3" x1="205.044" y1="462.808" x2="373.468" y2="462.808" xlink:href="#linear-gradient-2"/><linearGradient id="linear-gradient-4" x1="373.468" y1="487.503" x2="540.303" y2="487.503" xlink:href="#linear-gradient"/><linearGradient id="linear-gradient-5" x1="372.392" y1="631.89" x2="707.651" y2="631.89" gradientUnits="userSpaceOnUse"><stop offset="0" stop-color="#bf9d00"/><stop offset="1" stop-color="#fff"/></linearGradient><linearGradient id="linear-gradient-6" x1="372.392" y1="752.58" x2="540.816" y2="752.58" xlink:href="#linear-gradient-2"/><linearGradient id="linear-gradient-7" x1="539.741" y1="317.423" x2="875" y2="317.423" xlink:href="#linear-gradient-2"/></defs><title>SuccessR logo</title><rect width="1087" height="1087"/><polygon class="cls-1" points="539.741 535.965 539.741 343.707 708.165 439.042 708.165 631.299 539.741 535.965"/><polygon class="cls-2" points="205.044 319.012 373.468 220.5 540.303 319.012 373.468 414.346 205.044 319.012"/><polygon class="cls-3" points="205.044 511.27 205.044 319.012 373.468 414.346 373.468 606.604 205.044 511.27"/><polygon class="cls-4" points="540.303 536.759 540.303 343.707 373.468 439.042 373.468 631.299 540.303 536.759"/><polygon class="cls-5" points="372.392 633.479 540.816 534.967 707.651 633.479 540.816 728.813 372.392 633.479"/><polygon class="cls-6" points="372.392 801.041 372.392 608.784 540.816 704.118 540.816 896.375 372.392 801.041"/><polygon class="cls-7" points="707.651 801.836 707.651 608.784 540.816 704.118 540.816 896.375 707.651 801.836"/><polygon class="cls-8" points="539.741 319.012 708.165 220.5 875 319.012 708.165 414.346 539.741 319.012"/><polygon class="cls-7" points="875 512.064 875 319.012 708.165 414.346 708.165 606.604 875 512.064"/><polygon class="cls-9" points="372.392 415.603 540.816 317.091 707.651 415.603 540.816 510.937 372.392 415.603"/><polygon class="cls-9" points="372.392 607.86 372.392 415.603 540.816 510.937 540.816 703.194 372.392 607.86"/><polygon class="cls-9" points="707.651 608.655 707.651 415.603 540.816 510.937 540.816 703.194 707.651 608.655"/></svg>