<svg id="OBJECTS" xmlns="http://www.w3.org/2000/svg" viewBox="0 0 154.38 174.81"><defs><style>.cls-1{fill:#864039;}.cls-2{fill:#ab5550;}.cls-3{fill:#f4a6a0;}.cls-4{fill:#e18980;}.cls-5{fill:#468786;}.cls-6{fill:#5daaa7;}.cls-7{fill:#362836;}.cls-8{fill:#fff;}</style></defs><title>user1</title><path class="cls-1" d="M63,99.52s-15.33,9.67-7,24.34,66,10.66,36.33-24.34C67.87,70.61,63,99.52,63,99.52Z"/><path class="cls-1" d="M119.16,62.19s-6.67,8-5.34,16c1.92,11.51-15.66,26.67-33.66,21.67s1.33-38.67,1.33-38.67Z"/><path class="cls-1" d="M35,62.19s6.67,8,5.33,16C38.45,89.7,56,104.86,74,99.86s-1.33-38.67-1.33-38.67Z"/><path class="cls-2" d="M80.79,87.37a50.76,50.76,0,0,0,24-5.18,25.68,25.68,0,0,0,9-7.91c.75-6.5,5.39-12.09,5.39-12.09l-37.67-1s-8.2,14.28-8.94,25.62A79.19,79.19,0,0,0,80.79,87.37Z"/><path class="cls-2" d="M40.52,76.79A90.33,90.33,0,0,0,80.79,87.37h.89c-.51-11.42-9-26.17-9-26.17L35,62.19S41,69.28,40.52,76.79Z"/><path class="cls-3" d="M97.24,116.2c-8.48-4.62-6.17-27-6.17-27L78.37,90v-.82L77,89.62l-1.36-.41V90L63,89.21s2.31,22.37-6.17,27-60.6,6.94-55.21,58.61H152.45C157.85,123.14,105.73,120.83,97.24,116.2Z"/><path class="cls-4" d="M61.17,110.43q15.22-2.27,30.42-4.68a67.69,67.69,0,0,1-.52-16.54L78.37,90v-.82L77,89.62l-1.36-.41V90L63,89.21S64.29,102.21,61.17,110.43Z"/><path class="cls-5" d="M114.49,120.18c-7.42,6.73-18.38,11.39-30.89,12.59L76.87,157,73.3,133c-13.55-.79-25.49-5.61-33.41-12.79C22.28,125.83-3.45,138.06.38,174.8H154C157.84,138.06,132.11,125.83,114.49,120.18Z"/><path class="cls-6" d="M74.22,139.14,73.3,133c-13.55-.79-25.49-5.61-33.41-12.79a91.67,91.67,0,0,0-9.34,3.54C36.79,132.21,53.8,138.46,74.22,139.14Z"/><path class="cls-6" d="M124.87,124.19a86.32,86.32,0,0,0-10.38-4c-7.42,6.73-18.38,11.39-30.89,12.59l-1.76,6.36C101.76,138.42,118.39,132.41,124.87,124.19Z"/><path class="cls-6" d="M75.34,162.89a2.8,2.8,0,1,0,2.8-2.8A2.8,2.8,0,0,0,75.34,162.89Z"/><path class="cls-4" d="M52.18,56.48c-2.5-7.76-8.42-6-9-5.78s-6.69,1-5.64,9.06S43.34,72.29,47.76,71C52.31,70.27,54.69,64.27,52.18,56.48Z"/><path class="cls-4" d="M102.08,56.48c2.5-7.76,8.41-6,9-5.78s6.7,1,5.64,9.06S110.91,72.29,106.49,71C101.94,70.27,99.56,64.27,102.08,56.48Z"/><path class="cls-3" d="M46.11,44.73c3.1-34,28.94-32.09,31.38-31.83,2.43-.26,28.27-2.16,31.37,31.83C112,78.92,96.75,101.25,77.49,100,58.23,101.25,43,78.92,46.11,44.73Z"/><path class="cls-2" d="M45,51.19s-1.67,44.67,24.67,49.67,42.66-17,40.33-52l-3.33-.34s-2.17,35.34-10.17,35.67,3.83-11-11.5-11.67-22.92-5.77-24.17,7.17C60,88.36,49.37,73.52,48,50.52S45,51.19,45,51.19Z"/><path class="cls-1" d="M49.3,60.79A80.33,80.33,0,0,1,48,50.52c-1.33-23-3,.67-3,.67a90.42,90.42,0,0,0,.52,11.53Z"/><path class="cls-1" d="M110.07,61.08a92.39,92.39,0,0,0,0-12.22l-3.33-.34s-.3,4.84-1.08,10.95Z"/><path class="cls-4" d="M81.94,48.72c.43,1.56.76,3.13,1.06,4.7s.55,3.16.77,4.74c.12.79.2,1.58.3,2.38s.19,1.58.26,2.38c.17,1.59.29,3.18.38,4.78l0,.43-.31.19c-1,.63-2.05,1.23-3.09,1.82s-2.1,1.17-3.2,1.68c.88-.83,1.8-1.6,2.72-2.37s1.86-1.5,2.82-2.23l-.29.63c-.26-1.58-.49-3.17-.67-4.75-.1-.8-.2-1.59-.27-2.38s-.17-1.59-.23-2.39c-.13-1.59-.23-3.19-.28-4.79S81.86,50.33,81.94,48.72Z"/><path class="cls-7" d="M101.86,46.2l-.74-.41-.83-.46-1.05-.55c-.39-.17-.79-.4-1.24-.57l-.66-.3-.7-.25c-.46-.21-1-.28-1.43-.45A11,11,0,0,0,93.73,43L93,42.93c-.24,0-.48,0-.73,0a8.4,8.4,0,0,0-1.42.22c-.47.08-.9.31-1.34.42l-.33.1-.3.16-.59.27a9.34,9.34,0,0,0-1,.52c-.3.19-.58.34-.81.47-.47.25-.77.38-.77.38s.12-.28.38-.76c.13-.24.29-.53.5-.85a4.88,4.88,0,0,1,.82-1,6.21,6.21,0,0,1,1.15-1.06A9.19,9.19,0,0,1,90,40.94c.3-.12.6-.22.91-.33a3.59,3.59,0,0,1,1-.23c.33,0,.67-.1,1-.13l1,0a8.61,8.61,0,0,1,2,.4c.31.11.61.25.9.37a4.33,4.33,0,0,1,.83.43c.26.16.52.31.76.47l.66.53a10.19,10.19,0,0,1,1.1,1.06,9.52,9.52,0,0,1,1.31,1.85A5.22,5.22,0,0,1,101.86,46.2Z"/><path class="cls-7" d="M69.67,46.2l-.74-.41-.83-.46-1-.55c-.39-.17-.79-.4-1.23-.57l-.67-.3-.69-.25c-.46-.21-1-.28-1.44-.45A11,11,0,0,0,61.54,43l-.74-.06c-.24,0-.48,0-.73,0a8.56,8.56,0,0,0-1.42.22c-.47.08-.9.31-1.34.42l-.33.1-.3.16-.59.27a10.28,10.28,0,0,0-1.05.52c-.3.19-.58.34-.81.47-.47.25-.77.38-.77.38s.12-.28.38-.76c.14-.24.3-.53.51-.85a4.51,4.51,0,0,1,.81-1,6.21,6.21,0,0,1,1.15-1.06,9.19,9.19,0,0,1,1.54-.91c.3-.12.6-.22.91-.33a3.59,3.59,0,0,1,1-.23c.33,0,.67-.1,1-.13l1,0a8.81,8.81,0,0,1,2,.4c.3.11.6.25.89.37a4.33,4.33,0,0,1,.83.43c.26.16.52.31.76.47l.67.53A12.45,12.45,0,0,1,68,43.56a9.85,9.85,0,0,1,1.3,1.85A5.22,5.22,0,0,1,69.67,46.2Z"/><path class="cls-7" d="M68.65,58.51s-.07-.27-.23-.74A12.44,12.44,0,0,0,67.64,56a6.27,6.27,0,0,0-1.68-2,3.77,3.77,0,0,0-1.26-.65A2.31,2.31,0,0,0,64,53.1a2.59,2.59,0,0,0-.74-.06c-.24,0-.54,0-.73,0a5.21,5.21,0,0,0-.78.14,3.8,3.8,0,0,0-1.22.58,4,4,0,0,0-.92,1A5.91,5.91,0,0,0,59,55.84a9.94,9.94,0,0,0-.53,1.91c-.08.48-.11.76-.11.76a6.48,6.48,0,0,1-.13-.77,7.19,7.19,0,0,1,.11-2.09,5.07,5.07,0,0,1,.47-1.37,4.27,4.27,0,0,1,1-1.33,4.14,4.14,0,0,1,1.63-.88,6.07,6.07,0,0,1,.84-.18,8.08,8.08,0,0,1,1,0,4.7,4.7,0,0,1,.91.1,3.52,3.52,0,0,1,.9.24,3.29,3.29,0,0,1,.82.4,3.82,3.82,0,0,1,.72.53,5.92,5.92,0,0,1,1.63,2.57,7.79,7.79,0,0,1,.39,2A5.21,5.21,0,0,1,68.65,58.51Z"/><path class="cls-7" d="M97.57,58.05s-.07-.28-.23-.74a11.87,11.87,0,0,0-.78-1.83,6.21,6.21,0,0,0-1.67-2,4.07,4.07,0,0,0-1.26-.65,2.83,2.83,0,0,0-.71-.17,3.7,3.7,0,0,0-.74-.06,5.61,5.61,0,0,0-.73,0,4.3,4.3,0,0,0-.79.14,3.67,3.67,0,0,0-1.22.57,4.19,4.19,0,0,0-.92,1,7.47,7.47,0,0,0-.58,1.12,9.55,9.55,0,0,0-.52,1.9,7.41,7.41,0,0,0-.11.77,4.92,4.92,0,0,1-.13-.78,6.8,6.8,0,0,1,.1-2.09,5.87,5.87,0,0,1,.47-1.37,4.23,4.23,0,0,1,1-1.32,4.14,4.14,0,0,1,1.64-.89,5.44,5.44,0,0,1,.84-.17,5.12,5.12,0,0,1,.94,0,3.56,3.56,0,0,1,.92.1,3.45,3.45,0,0,1,.89.24,3.15,3.15,0,0,1,.83.39,4.77,4.77,0,0,1,.72.53,5.92,5.92,0,0,1,1.63,2.57,7.93,7.93,0,0,1,.39,2A6.13,6.13,0,0,1,97.57,58.05Z"/><path class="cls-8" d="M90.66,77.93c-6.15,6-16.57,5.65-24.46.32"/><path class="cls-1" d="M78,17.86s-18.67-3.34-21.67,8.33,1.34,27.33-12.33,25c0,0-9.91,2-3.58,17.67,0,0-18.75-18-7.75-31C41.59,27.25,38,4.19,60,.52S78,13.52,78,17.86Z"/><path class="cls-2" d="M78,17.86s-18.67-3.34-21.67,8.33,1.34,27.33-12.33,25c0,0-9.91,2-3.58,17.67,0,0-18.75-18-7.75-31C41.59,27.25,38,4.19,60,.52S78,13.52,78,17.86Z"/><path class="cls-2" d="M76.25,17.86s18.66-3.34,21.66,8.33-1.33,27.33,12.34,25c0,0,9.91,2,3.57,17.67,0,0,18.76-18,7.76-31-9-10.61-5.33-33.67-27.33-37.34S76.25,13.52,76.25,17.86Z"/><path class="cls-2" d="M75.94,15.1c1.31,0,2.54,0,3.8.12s2.51.25,3.76.46a27.68,27.68,0,0,1,7.31,2.24A14.3,14.3,0,0,1,96.87,23a11.34,11.34,0,0,1,1.51,3.76,27,27,0,0,1,.43,3.8,73,73,0,0,1,0,7.4,67,67,0,0,0,0,7.22,15.56,15.56,0,0,0,.58,3.44A6.65,6.65,0,0,0,101,51.47a6.14,6.14,0,0,0,3,1.53,12.94,12.94,0,0,0,3.53.25h.06a10.44,10.44,0,0,1,2.16.59,7.59,7.59,0,0,1,1.94,1.1A4.7,4.7,0,0,1,113,56.66a4.54,4.54,0,0,1,.38,2.14,4.44,4.44,0,0,0-.53-2.06,4.65,4.65,0,0,0-1.43-1.53,7.52,7.52,0,0,0-1.91-.88,9.26,9.26,0,0,0-2.06-.4h.06a13.94,13.94,0,0,1-3.76,0,7.26,7.26,0,0,1-3.55-1.58A7.63,7.63,0,0,1,98,49a16.88,16.88,0,0,1-.82-3.72,68.36,68.36,0,0,1-.31-7.4c0-2.43,0-4.85-.23-7.22a23.47,23.47,0,0,0-.52-3.45,8.8,8.8,0,0,0-1.29-2.94,12.19,12.19,0,0,0-5.14-4.05,27,27,0,0,0-6.66-1.91q-1.74-.29-3.51-.42c-1.17-.08-2.38-.13-3.51-.1Z"/></svg>