<svg xmlns="http://www.w3.org/2000/svg" viewBox="0 0 150.35 184.49"><defs><style>.cls-1{fill:#ab5550;}.cls-2{fill:#864039;}.cls-3{fill:#fdecee;}.cls-4,.cls-8{fill:#362836;}.cls-4{opacity:0.1;}.cls-5{fill:#5a97c0;}.cls-6{fill:#6dbde8;}.cls-7{fill:#fff;}.cls-9{fill:#fddcc2;}.cls-10{fill:#debba4;}</style></defs><title>user2</title><g id="OBJECTS"><path class="cls-1" d="M95.4,125.89c-8.48-4.63-6.16-27-6.16-27l-12.71.82V98.9l-1.36.4-1.36-.4v.81l-12.7-.82s2.31,22.37-6.17,27-58.6,6.94-53.2,58.6H148.61C154,132.83,103.89,130.51,95.4,125.89Z"/><path class="cls-2" d="M59.33,120.12q15.23-2.28,30.42-4.68a67.51,67.51,0,0,1-.51-16.55l-12.71.82V98.9l-1.36.4-1.36-.4v.81l-12.7-.82S62.45,111.89,59.33,120.12Z"/><path class="cls-3" d="M106.08,128c-4.56,11.88-16.67,20.38-30.91,20.38S48.82,139.9,44.27,128c-17.47,4.79-48.18,15-43.86,56.47H149.93C154.26,143.07,123.55,132.81,106.08,128Z"/><path class="cls-4" d="M138,144.25c-18.74,12.13-41.35,16.88-62.37,23.58C55.92,174.1,36,179.54,15.89,184.49h134C152,165.16,146.34,152.62,138,144.25Z"/><path class="cls-5" d="M109,128.86v55.63h40.9C154,145.32,126.78,134,109,128.86Z"/><path class="cls-5" d="M41,128.94C23.28,134.14-3.66,145.53.41,184.49H41Z"/><path class="cls-6" d="M41.52,128.94v55.55s-20.5-35-19.5-47S39.52,124.83,41.52,128.94Z"/><path class="cls-6" d="M108,128.94v55.55s20.5-35,19.5-47S110,124.83,108,128.94Z"/><path class="cls-2" d="M50.34,66.16c-2.5-7.76-8.42-6-9-5.77s-6.7,1-5.65,9S41.5,82,45.92,80.68C50.47,80,52.85,74,50.34,66.16Z"/><path class="cls-2" d="M100.24,66.16c2.5-7.76,8.42-6,9-5.77s6.7,1,5.64,9S109.07,82,104.65,80.68C100.1,80,97.72,74,100.24,66.16Z"/><path class="cls-1" d="M44.27,54.41c3.1-34,28.94-32.08,31.38-31.83,2.44-.25,28.28-2.16,31.37,31.83,3.12,34.2-12.11,56.53-31.37,55.3C56.39,110.94,41.16,88.61,44.27,54.41Z"/><path class="cls-2" d="M80.1,58.4c.43,1.56.77,3.13,1.06,4.7s.55,3.16.77,4.74c.12.79.2,1.59.31,2.38s.18,1.59.26,2.38c.16,1.59.28,3.18.37,4.78l0,.43-.31.19q-1.53.94-3.09,1.83c-1,.58-2.1,1.16-3.2,1.68.88-.84,1.8-1.6,2.72-2.38s1.87-1.5,2.82-2.22l-.29.62c-.25-1.58-.49-3.16-.67-4.75-.1-.79-.2-1.59-.27-2.38s-.17-1.59-.23-2.39c-.12-1.59-.23-3.19-.28-4.79S80,60,80.1,58.4Z"/><path class="cls-7" d="M88.82,87.61c-6.15,6-16.57,5.65-24.46.32"/><path class="cls-8" d="M100,55.88l-.74-.41L98.45,55l-1-.56c-.39-.17-.79-.4-1.23-.57l-.67-.29-.69-.26c-.46-.2-1-.28-1.44-.45a11,11,0,0,0-1.48-.22l-.74-.06c-.24,0-.48,0-.73,0a9.75,9.75,0,0,0-1.42.22,14,14,0,0,0-1.34.43l-.33.1-.3.15-.59.27a10.24,10.24,0,0,0-1,.53l-.81.46c-.47.25-.77.38-.77.38s.12-.28.38-.76c.14-.23.3-.53.51-.85a4.74,4.74,0,0,1,.81-1,7,7,0,0,1,1.15-1.06,9.19,9.19,0,0,1,1.54-.91l.91-.33a3.25,3.25,0,0,1,1-.22c.33,0,.67-.1,1-.13s.69,0,1,0a10.07,10.07,0,0,1,2,.4c.3.11.6.25.89.38a4.3,4.3,0,0,1,.83.42c.26.16.52.31.76.48l.67.52a12.51,12.51,0,0,1,1.1,1.07,9.54,9.54,0,0,1,1.3,1.85A5.46,5.46,0,0,1,100,55.88Z"/><path class="cls-8" d="M67.83,55.88l-.74-.41L66.26,55l-1.05-.56c-.39-.17-.79-.4-1.23-.57l-.67-.29-.69-.26c-.46-.2-1-.28-1.44-.45a10.79,10.79,0,0,0-1.48-.22L59,52.61c-.24,0-.48,0-.72,0a9.67,9.67,0,0,0-1.43.22,14,14,0,0,0-1.34.43l-.33.1-.3.15-.59.27a10.24,10.24,0,0,0-1,.53l-.81.46c-.47.25-.77.38-.77.38s.12-.28.38-.76c.14-.23.3-.53.51-.85a4.74,4.74,0,0,1,.81-1,7,7,0,0,1,1.15-1.06A8.91,8.91,0,0,1,56,50.62l.91-.33a3.12,3.12,0,0,1,1-.22c.33,0,.67-.1,1-.13s.69,0,1,0a10.07,10.07,0,0,1,2,.4c.31.11.6.25.89.38a4.3,4.3,0,0,1,.83.42c.26.16.52.31.76.48l.67.52a11.26,11.26,0,0,1,1.1,1.07,9.54,9.54,0,0,1,1.3,1.85A5.46,5.46,0,0,1,67.83,55.88Z"/><path class="cls-8" d="M66.81,68.2s-.07-.28-.23-.74a13,13,0,0,0-.78-1.83,6.37,6.37,0,0,0-1.68-2A4,4,0,0,0,62.87,63a2.83,2.83,0,0,0-.71-.17,3.74,3.74,0,0,0-.75-.06,5.66,5.66,0,0,0-.73,0,4.19,4.19,0,0,0-.78.14,3.58,3.58,0,0,0-1.22.57,4.19,4.19,0,0,0-.92,1,6,6,0,0,0-.58,1.12,10.45,10.45,0,0,0-.53,1.9c-.08.48-.11.77-.11.77a6,6,0,0,1-.12-.78,6.8,6.8,0,0,1,.1-2.09A5.07,5.07,0,0,1,57,64a4.12,4.12,0,0,1,1-1.32,4,4,0,0,1,1.63-.89,6,6,0,0,1,.84-.17,5.27,5.27,0,0,1,.95,0,4.16,4.16,0,0,1,.92.09,4.08,4.08,0,0,1,.89.25,3.15,3.15,0,0,1,.83.39,4.23,4.23,0,0,1,.71.53,6,6,0,0,1,1.64,2.57,8.28,8.28,0,0,1,.38,2A5.38,5.38,0,0,1,66.81,68.2Z"/><path class="cls-8" d="M95.73,67.73s-.07-.28-.22-.74a11.62,11.62,0,0,0-.79-1.82,6.14,6.14,0,0,0-1.67-2,4.05,4.05,0,0,0-1.26-.64,2.85,2.85,0,0,0-.71-.18,3,3,0,0,0-.74-.05,4.34,4.34,0,0,0-.73,0,5.36,5.36,0,0,0-.79.14,3.56,3.56,0,0,0-1.21.58,4,4,0,0,0-.93.95,7.47,7.47,0,0,0-.58,1.12A10.57,10.57,0,0,0,85.58,67a7.48,7.48,0,0,0-.11.76,4.9,4.9,0,0,1-.13-.77,7.48,7.48,0,0,1,.1-2.09,5.93,5.93,0,0,1,.47-1.38,4.39,4.39,0,0,1,1-1.32,4.27,4.27,0,0,1,1.64-.89,5.44,5.44,0,0,1,.84-.17,7.81,7.81,0,0,1,.94,0,4.05,4.05,0,0,1,.92.1,3.52,3.52,0,0,1,.9.24,3.12,3.12,0,0,1,.82.4,4.72,4.72,0,0,1,.72.52,5.89,5.89,0,0,1,1.63,2.58,7.79,7.79,0,0,1,.39,2A5.92,5.92,0,0,1,95.73,67.73Z"/><path class="cls-9" d="M108.37,28.21c-1.75-7-5.91-8.74-7.9-9.18C99.32,1.06,51.32-2.23,50.7,1.21c-.67,3.66,17,9.66,17,9.66s-31.67-8.33-30-1c1.35,6,14.14,5.32,18.9,4.87-6.69.83-29.53,4.5-19.23,14.8a16.63,16.63,0,0,0,2.72,2.19c-1,12.77,2.83,42.81,2.83,42.81h2.66l-1-20.67c5.17-1,7.53-13.27,8.33-18.73,8.75.12,17.54-2.85,20.8-4.08-2,.92-5.06,3-1.68,6.15s15.84-.7,22-3c1.14,4.86,4.82,18.52,10.29,19.61l-1,20.67H106S110.7,37.54,108.37,28.21Z"/><path class="cls-10" d="M108.37,28.21c-1.75-7-5.91-8.74-7.9-9.18-.21-3.29-2-6.08-4.75-8.43C94.22,22.78,85.31,33.14,74,38.15c4.87,1.18,14.75-2,20.09-3.89,1.14,4.86,4.82,18.52,10.29,19.61l-1,20.67H106S110.7,37.54,108.37,28.21Z"/></g></svg>