<svg id="OBJECTS" xmlns="http://www.w3.org/2000/svg" viewBox="0 0 148.35 176.29"><defs><style>.cls-1{fill:#ec6760;}.cls-2{fill:#ea5450;}.cls-3{fill:#f3997e;}.cls-4{fill:#da7e66;}.cls-5{fill:#362836;}.cls-6{fill:#468786;}.cls-7{fill:#569d9b;}.cls-8{fill:#b36752;}.cls-9{fill:#fff;}</style></defs><title>user3</title><path class="cls-1" d="M116.2,25.67s2.67,19,10.67,31.67c11.54,18.26-3.33,20.66-.33,33.33s26,23.33-1.34,52.33c-17.89,19-39.33-18-39.33-18l-6-48.33Z"/><path class="cls-2" d="M107.38,56.58c-2.89-2.16-5.69-4.39-8.44-6.68L79.87,73.54l6,42.67a70,70,0,0,0,12.84,14.14c2-2.17,6.56,7.89,9.16,7,8.67-3,24.33-19.67,13-32.34C107.33,89.88,123.54,72.67,107.38,56.58Z"/><path class="cls-3" d="M94.07,117.68c-8.48-4.62-6.17-27-6.17-27l-12.7.82V90.7l-1.36.4-1.36-.4v.81l-12.7-.82s2.31,22.37-6.17,27S-5,124.62.41,176.29H147.28C152.68,124.62,102.56,122.31,94.07,117.68Z"/><path class="cls-4" d="M58,111.91q15.23-2.26,30.42-4.68a67.69,67.69,0,0,1-.52-16.54l-12.7.82V90.7l-1.36.4-1.36-.4v.81l-12.7-.82S61.12,103.69,58,111.91Z"/><path class="cls-5" d="M105.93,156a79.83,79.83,0,0,1,1-34.4c-2.15-.63-4.15-1.16-5.93-1.64-.81,9.34-1.91,18.82-5.42,27.23A44.49,44.49,0,0,1,90.73,156Z"/><path class="cls-6" d="M121.37,126.46C113,137.93,95,145.87,74.18,145.87S35.37,137.93,27,126.46C12.06,133.5-2.65,147,.41,176.29H147.94C151,147,136.29,133.5,121.37,126.46Z"/><path class="cls-7" d="M70.37,162.67c29.63,0,55.56-8.57,69.82-21.38-5.07-6.94-11.92-11.58-18.82-14.83C113,137.93,95,145.87,74.18,145.87S35.37,137.93,27,126.46c-8.15,3.84-16.23,9.62-21.39,18.84C20.48,155.85,44,162.67,70.37,162.67Z"/><path class="cls-4" d="M49,58c-2.5-7.76-8.42-6-9-5.77s-6.69,1-5.64,9.05,5.78,12.53,10.2,11.23C49.14,71.75,51.52,65.76,49,58Z"/><path class="cls-4" d="M98.91,58c2.5-7.76,8.41-6,9-5.77s6.7,1,5.64,9.05-5.78,12.53-10.2,11.23C98.77,71.75,96.39,65.76,98.91,58Z"/><path class="cls-3" d="M42.94,46.21c3.1-34,28.94-32.09,31.38-31.83,2.43-.26,28.27-2.16,31.37,31.83,3.12,34.19-12.11,56.53-31.37,55.3C55.06,102.74,39.83,80.4,42.94,46.21Z"/><path class="cls-1" d="M55.7,18.84s3.17,25.83,28.84,30.83L78.2,33.84S80.37,53,105.87,52c0,0,9.33,4.34,6,14.34a20.51,20.51,0,0,0,5.67-20.67c-3.5-13,4.66-13.83-8.34-33C97.74-4.23,60.2-6.16,55.7,18.84Z"/><path class="cls-1" d="M62.87,13.34s-12.33-10-21.67,1.33-7,29-15.66,40-7.34,20.67,3.33,31-30,20-17,45.67,45.33,12,47.67-8.34,1-24.66,1-24.66-13.67-10.67-16-27.67,1.66-25.33,9-31.33S67.54,28,62.87,13.34Z"/><path class="cls-2" d="M17.87,119.34c-2.72-5.25-3.12-9.34-2.14-12.67-5.49,6.29-9.2,14.13-3.86,24.67,13,25.66,45.33,12,47.67-8.34.05-.45.09-.88.14-1.32C49.45,129.77,27.9,138.71,17.87,119.34Z"/><path class="cls-8" d="M78.77,63.21a16.33,16.33,0,0,1,1,2.4c.3.81.55,1.63.77,2.46.12.41.2.83.3,1.25s.19.84.26,1.26c.17.84.29,1.69.38,2.54l0,.4-.22.2c-.69.63-1.41,1.25-2.13,1.85s-1.47,1.2-2.26,1.74c.52-.81,1.09-1.56,1.65-2.32s1.17-1.48,1.78-2.19l-.17.59c-.25-.82-.49-1.64-.67-2.48-.1-.42-.2-.83-.27-1.25s-.17-.84-.23-1.27c-.12-.85-.23-1.7-.28-2.56A17.61,17.61,0,0,1,78.77,63.21Z"/><path class="cls-9" d="M87.49,83.41c-6.15,6-16.57,5.65-24.47.32"/><path class="cls-5" d="M98.69,51.68,98,51.27l-.83-.45-1.05-.56c-.39-.17-.79-.39-1.24-.57l-.66-.29-.7-.26c-.46-.2-1-.28-1.43-.45a11,11,0,0,0-1.48-.22l-.74-.06c-.24,0-.48,0-.73.05a8.41,8.41,0,0,0-1.42.23,11.61,11.61,0,0,0-1.34.42l-.33.1-.3.15-.59.28a7.9,7.9,0,0,0-1,.52c-.3.19-.58.33-.81.46-.47.25-.77.38-.77.38s.12-.28.38-.76c.13-.23.29-.53.5-.85a5.16,5.16,0,0,1,.82-1,7,7,0,0,1,1.15-1.06,9.16,9.16,0,0,1,1.54-.9l.91-.34a3.25,3.25,0,0,1,1-.22c.33,0,.67-.1,1-.13s.68,0,1,0a9.83,9.83,0,0,1,2,.4c.31.12.61.25.9.38a4.33,4.33,0,0,1,.83.43c.26.16.52.31.76.47l.66.52A10.23,10.23,0,0,1,97,49.05a9.23,9.23,0,0,1,1.31,1.85A5.46,5.46,0,0,1,98.69,51.68Z"/><path class="cls-5" d="M66.5,51.68l-.74-.41-.83-.45-1.05-.56c-.39-.17-.79-.39-1.23-.57L62,49.4l-.69-.26c-.46-.2-1-.28-1.44-.45a11,11,0,0,0-1.48-.22l-.74-.06c-.24,0-.48,0-.73.05a8.58,8.58,0,0,0-1.42.23,11.61,11.61,0,0,0-1.34.42l-.33.1-.3.15-.59.28a8.56,8.56,0,0,0-1.05.52c-.3.19-.58.33-.81.46-.47.25-.77.38-.77.38s.12-.28.38-.76c.14-.23.29-.53.51-.85a4.74,4.74,0,0,1,.81-1,7,7,0,0,1,1.15-1.06,9.16,9.16,0,0,1,1.54-.9l.91-.34a3.25,3.25,0,0,1,1-.22c.33,0,.67-.1,1-.13s.68,0,1,0a10.07,10.07,0,0,1,2,.4l.89.38a4.33,4.33,0,0,1,.83.43c.26.16.52.31.76.47l.67.52a12.51,12.51,0,0,1,1.1,1.07,9.54,9.54,0,0,1,1.3,1.85A5.46,5.46,0,0,1,66.5,51.68Z"/><path class="cls-5" d="M65.48,64s-.07-.28-.23-.74a12.44,12.44,0,0,0-.78-1.82,6.3,6.3,0,0,0-1.68-2,4.07,4.07,0,0,0-1.26-.65,2.64,2.64,0,0,0-.71-.17,3.58,3.58,0,0,0-.74-.06,5.66,5.66,0,0,0-.73,0,5.21,5.21,0,0,0-.78.14,3.43,3.43,0,0,0-1.22.58,3.77,3.77,0,0,0-.92,1,6,6,0,0,0-.58,1.12,9.69,9.69,0,0,0-.53,1.9c-.08.48-.11.77-.11.77a7,7,0,0,1-.13-.78,7.21,7.21,0,0,1,.11-2.09,5.07,5.07,0,0,1,.47-1.37,4.23,4.23,0,0,1,1-1.32,4.15,4.15,0,0,1,1.63-.89,6,6,0,0,1,.84-.17,6.38,6.38,0,0,1,1-.05,4,4,0,0,1,.91.1,3.52,3.52,0,0,1,.9.24,3,3,0,0,1,.82.39,4.32,4.32,0,0,1,.72.53,5.89,5.89,0,0,1,1.63,2.58,7.8,7.8,0,0,1,.39,2A5.38,5.38,0,0,1,65.48,64Z"/><path class="cls-5" d="M94.4,63.53s-.07-.28-.23-.74A11.42,11.42,0,0,0,93.39,61a6.14,6.14,0,0,0-1.67-2,4.05,4.05,0,0,0-1.26-.64,2.46,2.46,0,0,0-.71-.17,2.65,2.65,0,0,0-.74-.06c-.24,0-.55,0-.73,0a5.36,5.36,0,0,0-.79.14,3.7,3.7,0,0,0-1.22.58,4.35,4.35,0,0,0-.92,1,7.47,7.47,0,0,0-.58,1.12,9.8,9.8,0,0,0-.52,1.91,7.48,7.48,0,0,0-.11.76,4.61,4.61,0,0,1-.13-.77,6.8,6.8,0,0,1,.1-2.09,5.71,5.71,0,0,1,.47-1.37,4.16,4.16,0,0,1,1-1.33,4.27,4.27,0,0,1,1.64-.89,7,7,0,0,1,.84-.17,7.81,7.81,0,0,1,.94,0A4.71,4.71,0,0,1,90,57a3.45,3.45,0,0,1,.89.24,3.18,3.18,0,0,1,.83.4,3.75,3.75,0,0,1,.71.53A5.75,5.75,0,0,1,94,60.7a7.79,7.79,0,0,1,.39,2A5.92,5.92,0,0,1,94.4,63.53Z"/></svg>